# xmcd CD database file
#
# Track frame offsets:
#	150
#	7489
#	15806
#	25445
#	33200
#	44202
#	51130
#	60465
#	73157
#	80441
#	88754
#	96914
#	105462
#	114490
#	122336
#	131432
#	134214
#	141920
#	150686
#	160934
#	169149
#	180791
#	188229
#	198208
#	211207
#	218974
#	227741
#	236396
#	245440
#	255246
#	263560
#	273514
#	279774
#	286627
#	294365
#	297893
#	299345
#	300397
#	301210
#	303081
#	303922
#	304752
#
# Disc length: 4081 seconds
#
# Revision: 0
# Processed by: cddbd v1.5.1PL2 Copyright (c) Steve Scherf et al.
# Submitted via: CDex 1.51
#
DISCID=490fef2a
DTITLE=Associated Board of the Royal Schools of Music - Jazz Tenor Sax Level 5
DYEAR=2003
DGENRE=Jazz
TTITLE0=Five Spot After Dark-Full
TTITLE1=Keepin in the Groove-Full
TTITLE2=Kelly Blue-Full
TTITLE3=Tenor Madness-Full
TTITLE4=Tin Roof Blues-Full
TTITLE5=At A Georgia Camp Meeting-Full
TTITLE6=Blue Room-Full
TTITLE7=My Ship-Full
TTITLE8=Nutty-Full
TTITLE9=What Is This Thing Called Love-Full
TTITLE10=Brazilian Beat-Full
TTITLE11=Broken Wing-Full
TTITLE12=Entering-Full
TTITLE13=Gotcha(Starsky and Hutch)-Full
TTITLE14=Small World-Full
TTITLE15=Tuning Note Bb
TTITLE16=Fiver Spot After Dark
TTITLE17=Keepin in the Groove
TTITLE18=Kelly Blue
TTITLE19=Tenor Madness
TTITLE20=Tin Roof Blues
TTITLE21=At A Georgia Camp Meeting
TTITLE22=Blue Room
TTITLE23=My Ship 
TTITLE24=Nutty
TTITLE25=What Is This Thing Called Love
TTITLE26=Brazilian Beat
TTITLE27=Broken Wing
TTITLE28=Entering
TTITLE29=Gotcha(Starsky and Hutch)
TTITLE30=Small World
TTITLE31=Aural Test A-1
TTITLE32=Aural Test B-1
TTITLE33=Quick Study 1 by ear
TTITLE34=Quick Study 1 at sight
TTITLE35=Lydian on Bb 2 oct swing
TTITLE36=Major pentatonic on Eb - 2 oct-straight 8s
TTITLE37=Blues scale on F-1 oct-straight 8s
TTITLE38=Chromatic on Eb-2 oct-straight 8s
TTITLE39=Ab major arpeggio- to a twelfth-straight
TTITLE40=Em9 arpeggio- to a nineth- swing
TTITLE41=Dim 7th arpeggio on D- 2 oct-swing
EXTD=YEAR: 2003
EXTT0=
EXTT1=
EXTT2=
EXTT3=
EXTT4=
EXTT5=
EXTT6=
EXTT7=
EXTT8=
EXTT9=
EXTT10=
EXTT11=
EXTT12=
EXTT13=
EXTT14=
EXTT15=
EXTT16=
EXTT17=
EXTT18=
EXTT19=
EXTT20=
EXTT21=
EXTT22=
EXTT23=
EXTT24=
EXTT25=
EXTT26=
EXTT27=
EXTT28=
EXTT29=
EXTT30=
EXTT31=
EXTT32=
EXTT33=
EXTT34=
EXTT35=
EXTT36=
EXTT37=
EXTT38=
EXTT39=
EXTT40=
EXTT41=
PLAYORDER=
